# Blender3D v249 OBJ File: radar.blend
# www.blender3d.org
mtllib radar.mtl
v 1.029639 -0.076161 0.031863
v 1.021258 -0.076161 0.129915
v 1.003307 -0.076161 0.226674
v 0.975957 -0.076161 0.321208
v 0.939474 -0.076161 0.412605
v 0.894208 -0.076161 0.499987
v 0.840594 -0.076161 0.582510
v 0.779151 -0.076161 0.659382
v 0.710468 -0.076161 0.729861
v 0.635208 -0.076161 0.793268
v 0.554095 -0.076161 0.848993
v 0.467911 -0.076161 0.896500
v 0.377486 -0.076161 0.935330
v 0.283689 -0.076161 0.965110
v 0.187426 -0.076161 0.985552
v 0.089622 -0.076161 0.996461
v -0.008780 -0.076161 0.997731
v -0.106832 -0.076161 0.989350
v -0.203591 -0.076161 0.971399
v -0.298125 -0.076161 0.944049
v -0.389522 -0.076161 0.907566
v -0.476904 -0.076161 0.862299
v -0.559428 -0.076161 0.808686
v -0.636299 -0.076161 0.747242
v -0.706778 -0.076161 0.678560
v -0.770185 -0.076161 0.603300
v -0.825910 -0.076161 0.522187
v -0.873416 -0.076161 0.436003
v -0.912246 -0.076161 0.345577
v -0.942026 -0.076161 0.251781
v -0.962469 -0.076161 0.155517
v -0.973378 -0.076161 0.057714
v -0.974648 -0.076161 -0.040688
v -0.966267 -0.076161 -0.138741
v -0.948315 -0.076161 -0.235499
v -0.920966 -0.076161 -0.330033
v -0.884482 -0.076161 -0.421430
v -0.839216 -0.076161 -0.508811
v -0.785603 -0.076161 -0.591335
v -0.724160 -0.076161 -0.668206
v -0.655477 -0.076161 -0.738685
v -0.580217 -0.076161 -0.802092
v -0.499105 -0.076161 -0.857817
v -0.412921 -0.076161 -0.905323
v -0.322496 -0.076161 -0.944154
v -0.228700 -0.076161 -0.973934
v -0.132437 -0.076161 -0.994377
v -0.034633 -0.076161 -1.005286
v 0.063768 -0.076161 -1.006556
v 0.161821 -0.076161 -0.998175
v 0.258580 -0.076161 -0.980224
v 0.353113 -0.076161 -0.952875
v 0.444510 -0.076161 -0.916392
v 0.531892 -0.076161 -0.871126
v 0.614416 -0.076161 -0.817513
v 0.691287 -0.076161 -0.756070
v 0.761766 -0.076161 -0.687387
v 0.825173 -0.076161 -0.612128
v 0.880899 -0.076161 -0.531016
v 0.928406 -0.076161 -0.444832
v 0.967236 -0.076161 -0.354407
v 0.997016 -0.076161 -0.260611
v 1.017460 -0.076161 -0.164348
v 1.028369 -0.076161 -0.066544
v 1.029639 -0.030762 0.031857
v 1.021259 -0.030762 0.129910
v 1.003308 -0.030762 0.226669
v 0.975959 -0.030762 0.321202
v 0.939476 -0.030762 0.412600
v 0.894211 -0.030762 0.499981
v 0.840598 -0.030762 0.582505
v 0.779155 -0.030762 0.659377
v 0.710473 -0.030762 0.729856
v 0.635214 -0.030762 0.793264
v 0.554101 -0.030762 0.848989
v 0.467917 -0.030762 0.896497
v 0.377492 -0.030762 0.935327
v 0.283695 -0.030762 0.965108
v 0.187432 -0.030762 0.985552
v 0.089628 -0.030762 0.996461
v -0.008774 -0.030762 0.997732
v -0.106827 -0.030762 0.989351
v -0.203586 -0.030762 0.971400
v -0.298120 -0.030762 0.944051
v -0.389518 -0.030762 0.907568
v -0.476900 -0.030762 0.862302
v -0.559424 -0.030762 0.808689
v -0.636296 -0.030762 0.747245
v -0.706775 -0.030762 0.678562
v -0.770183 -0.030762 0.603302
v -0.825908 -0.030762 0.522189
v -0.873415 -0.030762 0.436005
v -0.912246 -0.030762 0.345580
v -0.942026 -0.030762 0.251783
v -0.962469 -0.030762 0.155520
v -0.973378 -0.030762 0.057716
v -0.974648 -0.030762 -0.040686
v -0.966267 -0.030762 -0.138739
v -0.948315 -0.030762 -0.235499
v -0.920966 -0.030762 -0.330032
v -0.884482 -0.030762 -0.421430
v -0.839216 -0.030762 -0.508812
v -0.785603 -0.030762 -0.591336
v -0.724158 -0.030762 -0.668207
v -0.655476 -0.030762 -0.738686
v -0.580215 -0.030762 -0.802093
v -0.499102 -0.030762 -0.857819
v -0.412918 -0.030762 -0.905325
v -0.322492 -0.030762 -0.944155
v -0.228696 -0.030762 -0.973935
v -0.132432 -0.030762 -0.994377
v -0.034628 -0.030762 -1.005286
v 0.063774 -0.030762 -1.006556
v 0.161827 -0.030762 -0.998174
v 0.258586 -0.030762 -0.980222
v 0.353120 -0.030762 -0.952872
v 0.444518 -0.030762 -0.916388
v 0.531899 -0.030762 -0.871122
v 0.614423 -0.030762 -0.817508
v 0.691294 -0.030762 -0.756063
v 0.761773 -0.030762 -0.687380
v 0.825180 -0.030762 -0.612119
v 0.880904 -0.030762 -0.531006
v 0.928410 -0.030762 -0.444822
v 0.967240 -0.030762 -0.354396
v 0.997019 -0.030762 -0.260599
v 1.017462 -0.030762 -0.164335
v 1.028370 -0.030762 -0.066531
v 0.027496 -0.076161 -0.004412
v 0.027496 -0.030762 -0.004412
vt 0.510931 0.492507
vt 1.016640 0.472051
vt 1.012388 0.422393
vt 1.012390 0.422395
vt 1.016640 0.472054
vt 1.003308 0.373410
vt 1.003309 0.373412
vt 0.989485 0.325574
vt 0.989485 0.325577
vt 0.971053 0.279345
vt 0.971055 0.279348
vt 0.948191 0.235170
vt 0.948192 0.235173
vt 0.921117 0.193472
vt 0.921119 0.193476
vt 0.890092 0.154655
vt 0.890095 0.154659
vt 0.855417 0.119092
vt 0.855419 0.119094
vt 0.817423 0.087124
vt 0.817427 0.087126
vt 0.776479 0.059061
vt 0.776482 0.059063
vt 0.732976 0.035172
vt 0.732980 0.035173
vt 0.687336 0.015687
vt 0.687338 0.015689
vt 0.639996 0.000794
vt 0.639999 0.000795
vt 0.591414 -0.009363
vt 0.591416 -0.009362
vt 0.542055 -0.014686
vt 0.542059 -0.014686
vt 0.492399 -0.015126
vt 0.492401 -0.015125
vt 0.442919 -0.010676
vt 0.442922 -0.010677
vt 0.394095 -0.001380
vt 0.394097 -0.001381
vt 0.346396 0.012670
vt 0.346399 0.012670
vt 0.300282 0.031345
vt 0.300284 0.031342
vt 0.256197 0.054458
vt 0.256199 0.054456
vt 0.214565 0.081791
vt 0.214566 0.081790
vt 0.175786 0.113079
vt 0.175788 0.113078
vt 0.140236 0.148022
vt 0.140237 0.148020
vt 0.108255 0.186282
vt 0.108256 0.186280
vt 0.080153 0.227490
vt 0.080153 0.227489
vt 0.056199 0.271252
vt 0.056199 0.271251
vt 0.036624 0.317144
vt 0.036625 0.317142
vt 0.021617 0.364724
vt 0.021618 0.364724
vt 0.011323 0.413536
vt 0.005840 0.463109
vt 0.005840 0.463107
vt 0.005222 0.512964
vt 0.005222 0.512963
vt 0.009473 0.562622
vt 0.009473 0.562621
vt 0.018554 0.611605
vt 0.018554 0.611604
vt 0.032377 0.659441
vt 0.050809 0.705669
vt 0.073671 0.749845
vt 0.100745 0.791542
vt 0.100746 0.791542
vt 0.131769 0.830359
vt 0.131770 0.830359
vt 0.166445 0.865922
vt 0.166445 0.865923
vt 0.204438 0.897890
vt 0.204439 0.897890
vt 0.245383 0.925953
vt 0.245384 0.925954
vt 0.288885 0.949842
vt 0.288887 0.949843
vt 0.334526 0.969327
vt 0.334528 0.969328
vt 0.381865 0.984220
vt 0.381867 0.984220
vt 0.430448 0.994377
vt 0.430450 0.994377
vt 0.479805 0.999700
vt 0.479808 0.999701
vt 0.529462 1.000140
vt 0.529465 1.000140
vt 0.578941 0.995691
vt 0.578945 0.995690
vt 0.627765 0.986395
vt 0.627769 0.986395
vt 0.675464 0.972344
vt 0.675467 0.972342
vt 0.721578 0.953671
vt 0.721581 0.953670
vt 0.765663 0.930557
vt 0.765667 0.930555
vt 0.807296 0.903225
vt 0.807299 0.903222
vt 0.846074 0.871936
vt 0.846078 0.871933
vt 0.881624 0.836994
vt 0.881628 0.836990
vt 0.913605 0.798735
vt 0.913609 0.798730
vt 0.941708 0.757526
vt 0.941710 0.757521
vt 0.965661 0.713764
vt 0.965664 0.713760
vt 0.985237 0.667873
vt 0.985239 0.667867
vt 1.000244 0.620292
vt 1.000245 0.620286
vt 1.010539 0.571481
vt 1.010539 0.571474
vt 1.016021 0.521908
vt 1.016021 0.521902
vn 0.000000 -1.000000 0.000000
vn -0.000000 1.000000 -0.000000
vn 0.996367 -0.000000 0.085163
vn 0.983222 -0.000001 0.182413
vn 0.960608 -0.000001 0.277908
vn 0.928742 -0.000000 0.370725
vn 0.887933 0.000000 0.459973
vn 0.838572 -0.000000 0.544791
vn 0.781135 0.000000 0.624362
vn 0.716176 -0.000000 0.697920
vn 0.644319 0.000000 0.764757
vn 0.566257 0.000000 0.824228
vn 0.482742 -0.000000 0.875763
vn 0.394578 0.000001 0.918863
vn 0.302613 0.000002 0.953113
vn 0.207734 0.000001 0.978185
vn 0.110855 0.000000 0.993837
vn 0.012908 0.000000 0.999917
vn -0.085163 0.000000 0.996367
vn -0.182415 -0.000000 0.983222
vn -0.277909 -0.000000 0.960607
vn -0.370727 -0.000000 0.928742
vn -0.459974 0.000000 0.887932
vn -0.544792 -0.000000 0.838571
vn -0.624363 -0.000000 0.781134
vn -0.697922 -0.000000 0.716174
vn -0.764758 0.000000 0.644318
vn -0.824230 0.000001 0.566255
vn -0.875764 -0.000000 0.482740
vn -0.918864 -0.000001 0.394575
vn -0.953114 -0.000001 0.302611
vn -0.978186 -0.000000 0.207732
vn -0.993837 0.000000 0.110852
vn -0.999917 0.000000 0.012905
vn -0.996367 -0.000000 -0.085166
vn -0.983221 -0.000001 -0.182417
vn -0.960607 0.000001 -0.277911
vn -0.928741 0.000001 -0.370729
vn -0.887931 0.000000 -0.459976
vn -0.838570 0.000001 -0.544794
vn -0.781133 0.000000 -0.624364
vn -0.716173 0.000000 -0.697923
vn -0.644316 -0.000000 -0.764759
vn -0.566254 -0.000000 -0.824231
vn -0.482738 0.000000 -0.875765
vn -0.394574 0.000000 -0.918864
vn -0.302610 0.000001 -0.953115
vn -0.207731 0.000000 -0.978186
vn -0.110852 0.000000 -0.993837
vn -0.012905 0.000000 -0.999917
vn 0.085167 0.000000 -0.996367
vn 0.182417 0.000000 -0.983221
vn 0.277912 0.000001 -0.960607
vn 0.370730 0.000000 -0.928741
vn 0.459976 0.000001 -0.887931
vn 0.544794 0.000001 -0.838570
vn 0.624366 0.000003 -0.781132
vn 0.697924 0.000003 -0.716172
vn 0.764759 0.000002 -0.644316
vn 0.824231 0.000002 -0.566254
vn 0.875765 0.000002 -0.482738
vn 0.918865 0.000001 -0.394573
vn 0.953115 -0.000000 -0.302610
vn 0.978186 0.000000 -0.207730
vn 0.993837 -0.000000 -0.110851
vn 0.999917 -0.000009 -0.012906
usemtl None_myRadar.PNG
s off
f 129/1/1 1/2/1 2/3/1
f 130/1/2 66/4/2 65/5/2
f 129/1/1 2/3/1 3/6/1
f 130/1/2 67/7/2 66/4/2
f 129/1/1 3/6/1 4/8/1
f 130/1/2 68/9/2 67/7/2
f 129/1/1 4/8/1 5/10/1
f 130/1/2 69/11/2 68/9/2
f 129/1/1 5/10/1 6/12/1
f 130/1/2 70/13/2 69/11/2
f 129/1/1 6/12/1 7/14/1
f 130/1/2 71/15/2 70/13/2
f 129/1/1 7/14/1 8/16/1
f 130/1/2 72/17/2 71/15/2
f 129/1/1 8/16/1 9/18/1
f 130/1/2 73/19/2 72/17/2
f 129/1/1 9/18/1 10/20/1
f 130/1/2 74/21/2 73/19/2
f 129/1/1 10/20/1 11/22/1
f 130/1/2 75/23/2 74/21/2
f 129/1/1 11/22/1 12/24/1
f 130/1/2 76/25/2 75/23/2
f 129/1/1 12/24/1 13/26/1
f 130/1/2 77/27/2 76/25/2
f 129/1/1 13/26/1 14/28/1
f 130/1/2 78/29/2 77/27/2
f 129/1/1 14/28/1 15/30/1
f 130/1/2 79/31/2 78/29/2
f 129/1/1 15/30/1 16/32/1
f 130/1/2 80/33/2 79/31/2
f 129/1/1 16/32/1 17/34/1
f 130/1/2 81/35/2 80/33/2
f 129/1/1 17/34/1 18/36/1
f 130/1/2 82/37/2 81/35/2
f 129/1/1 18/36/1 19/38/1
f 130/1/2 83/39/2 82/37/2
f 129/1/1 19/38/1 20/40/1
f 130/1/2 84/41/2 83/39/2
f 129/1/1 20/40/1 21/42/1
f 130/1/2 85/43/2 84/41/2
f 129/1/1 21/42/1 22/44/1
f 130/1/2 86/45/2 85/43/2
f 129/1/1 22/44/1 23/46/1
f 130/1/2 87/47/2 86/45/2
f 129/1/1 23/46/1 24/48/1
f 130/1/2 88/49/2 87/47/2
f 129/1/1 24/48/1 25/50/1
f 130/1/2 89/51/2 88/49/2
f 129/1/1 25/50/1 26/52/1
f 130/1/2 90/53/2 89/51/2
f 129/1/1 26/52/1 27/54/1
f 130/1/2 91/55/2 90/53/2
f 129/1/1 27/54/1 28/56/1
f 130/1/2 92/57/2 91/55/2
f 129/1/1 28/56/1 29/58/1
f 130/1/2 93/59/2 92/57/2
f 129/1/1 29/58/1 30/60/1
f 130/1/2 94/61/2 93/59/2
f 129/1/1 30/60/1 31/62/1
f 130/1/2 95/62/2 94/61/2
f 129/1/1 31/62/1 32/63/1
f 130/1/2 96/64/2 95/62/2
f 129/1/1 32/63/1 33/65/1
f 130/1/2 97/66/2 96/64/2
f 129/1/1 33/65/1 34/67/1
f 130/1/2 98/68/2 97/66/2
f 129/1/1 34/67/1 35/69/1
f 130/1/2 99/70/2 98/68/2
f 129/1/1 35/69/1 36/71/1
f 130/1/2 100/71/2 99/70/2
f 129/1/1 36/71/1 37/72/1
f 130/1/2 101/72/2 100/71/2
f 129/1/1 37/72/1 38/73/1
f 130/1/2 102/73/2 101/72/2
f 129/1/1 38/73/1 39/74/1
f 130/1/2 103/75/2 102/73/2
f 129/1/1 39/74/1 40/76/1
f 130/1/2 104/77/2 103/75/2
f 129/1/1 40/76/1 41/78/1
f 130/1/2 105/79/2 104/77/2
f 129/1/1 41/78/1 42/80/1
f 130/1/2 106/81/2 105/79/2
f 129/1/1 42/80/1 43/82/1
f 130/1/2 107/83/2 106/81/2
f 129/1/1 43/82/1 44/84/1
f 130/1/2 108/85/2 107/83/2
f 129/1/1 44/84/1 45/86/1
f 130/1/2 109/87/2 108/85/2
f 129/1/1 45/86/1 46/88/1
f 130/1/2 110/89/2 109/87/2
f 129/1/1 46/88/1 47/90/1
f 130/1/2 111/91/2 110/89/2
f 129/1/1 47/90/1 48/92/1
f 130/1/2 112/93/2 111/91/2
f 129/1/1 48/92/1 49/94/1
f 130/1/2 113/95/2 112/93/2
f 129/1/1 49/94/1 50/96/1
f 130/1/2 114/97/2 113/95/2
f 129/1/1 50/96/1 51/98/1
f 130/1/2 115/99/2 114/97/2
f 129/1/1 51/98/1 52/100/1
f 130/1/2 116/101/2 115/99/2
f 129/1/1 52/100/1 53/102/1
f 130/1/2 117/103/2 116/101/2
f 129/1/1 53/102/1 54/104/1
f 130/1/2 118/105/2 117/103/2
f 129/1/1 54/104/1 55/106/1
f 130/1/2 119/107/2 118/105/2
f 129/1/1 55/106/1 56/108/1
f 130/1/2 120/109/2 119/107/2
f 129/1/1 56/108/1 57/110/1
f 130/1/2 121/111/2 120/109/2
f 129/1/1 57/110/1 58/112/1
f 130/1/2 122/113/2 121/111/2
f 129/1/1 58/112/1 59/114/1
f 130/1/2 123/115/2 122/113/2
f 129/1/1 59/114/1 60/116/1
f 130/1/2 124/117/2 123/115/2
f 129/1/1 60/116/1 61/118/1
f 130/1/2 125/119/2 124/117/2
f 129/1/1 61/118/1 62/120/1
f 130/1/2 126/121/2 125/119/2
f 129/1/1 62/120/1 63/122/1
f 130/1/2 127/123/2 126/121/2
f 129/1/1 63/122/1 64/124/1
f 130/1/2 128/125/2 127/123/2
f 64/124/1 1/2/1 129/1/1
f 130/1/2 65/5/2 128/125/2
f 1/2/3 65/5/3 66/4/3 2/3/3
f 2/3/4 66/4/4 67/7/4 3/6/4
f 3/6/5 67/7/5 68/9/5 4/8/5
f 4/8/6 68/9/6 69/11/6 5/10/6
f 5/10/7 69/11/7 70/13/7 6/12/7
f 6/12/8 70/13/8 71/15/8 7/14/8
f 7/14/9 71/15/9 72/17/9 8/16/9
f 8/16/10 72/17/10 73/19/10 9/18/10
f 9/18/11 73/19/11 74/21/11 10/20/11
f 10/20/12 74/21/12 75/23/12 11/22/12
f 11/22/13 75/23/13 76/25/13 12/24/13
f 12/24/14 76/25/14 77/27/14 13/26/14
f 13/26/15 77/27/15 78/29/15 14/28/15
f 14/28/16 78/29/16 79/31/16 15/30/16
f 15/30/17 79/31/17 80/33/17 16/32/17
f 16/32/18 80/33/18 81/35/18 17/34/18
f 17/34/19 81/35/19 82/37/19 18/36/19
f 18/36/20 82/37/20 83/39/20 19/38/20
f 19/38/21 83/39/21 84/41/21 20/40/21
f 20/40/22 84/41/22 85/43/22 21/42/22
f 21/42/23 85/43/23 86/45/23 22/44/23
f 22/44/24 86/45/24 87/47/24 23/46/24
f 23/46/25 87/47/25 88/49/25 24/48/25
f 24/48/26 88/49/26 89/51/26 25/50/26
f 25/50/27 89/51/27 90/53/27 26/52/27
f 26/52/28 90/53/28 91/55/28 27/54/28
f 27/54/29 91/55/29 92/57/29 28/56/29
f 28/56/30 92/57/30 93/59/30 29/58/30
f 29/58/31 93/59/31 94/61/31 30/60/31
f 30/60/32 94/61/32 95/62/32 31/62/32
f 31/62/33 95/62/33 96/64/33 32/63/33
f 32/63/34 96/64/34 97/66/34 33/65/34
f 33/65/35 97/66/35 98/68/35 34/67/35
f 34/67/36 98/68/36 99/70/36 35/69/36
f 35/69/37 99/70/37 100/71/37 36/71/37
f 36/71/38 100/71/38 101/72/38 37/72/38
f 37/72/39 101/72/39 102/73/39 38/73/39
f 38/73/40 102/73/40 103/75/40 39/74/40
f 39/74/41 103/75/41 104/77/41 40/76/41
f 40/76/42 104/77/42 105/79/42 41/78/42
f 41/78/43 105/79/43 106/81/43 42/80/43
f 42/80/44 106/81/44 107/83/44 43/82/44
f 43/82/45 107/83/45 108/85/45 44/84/45
f 44/84/46 108/85/46 109/87/46 45/86/46
f 45/86/47 109/87/47 110/89/47 46/88/47
f 46/88/48 110/89/48 111/91/48 47/90/48
f 47/90/49 111/91/49 112/93/49 48/92/49
f 48/92/50 112/93/50 113/95/50 49/94/50
f 49/94/51 113/95/51 114/97/51 50/96/51
f 50/96/52 114/97/52 115/99/52 51/98/52
f 51/98/53 115/99/53 116/101/53 52/100/53
f 52/100/54 116/101/54 117/103/54 53/102/54
f 53/102/55 117/103/55 118/105/55 54/104/55
f 54/104/56 118/105/56 119/107/56 55/106/56
f 55/106/57 119/107/57 120/109/57 56/108/57
f 56/108/58 120/109/58 121/111/58 57/110/58
f 57/110/59 121/111/59 122/113/59 58/112/59
f 58/112/60 122/113/60 123/115/60 59/114/60
f 59/114/61 123/115/61 124/117/61 60/116/61
f 60/116/62 124/117/62 125/119/62 61/118/62
f 61/118/63 125/119/63 126/121/63 62/120/63
f 62/120/64 126/121/64 127/123/64 63/122/64
f 63/122/65 127/123/65 128/125/65 64/124/65
f 65/5/66 1/2/66 64/124/66 128/125/66
